<?xml version="1.0" encoding="UTF-8"?>
<svg id="Warstwa_1" data-name="Warstwa 1" xmlns="http://www.w3.org/2000/svg" viewBox="0 0 791.84 265.17">
  <defs>
    <style>
      .cls-1 {
        fill: #fff;
      }
    </style>
  </defs>
  <g>
    <path class="cls-1" d="M265.36,121.46v26.7c0,7.28.02,13.78.08,19.49.05,5.71.28,10.19.68,13.42.2,2.23.66,4.1,1.37,5.61.71,1.52,2.22,2.43,4.55,2.73,1.11.2,2.35.36,3.72.45,1.36.1,2.4.15,3.11.15.81,0,1.21.3,1.21.91,0,.81-.81,1.21-2.43,1.21-2.12,0-4.25-.03-6.37-.07-2.12-.05-4.07-.1-5.84-.15-1.77-.05-3.24-.1-4.4-.15-1.16-.05-1.85-.08-2.05-.08s-.89.02-2.05.08c-1.16.05-2.5.1-4.02.15-1.52.05-3.09.1-4.7.15-1.62.05-2.98.07-4.1.07-1.62,0-2.43-.4-2.43-1.21,0-.61.4-.91,1.21-.91.71,0,1.46-.05,2.28-.15.81-.1,1.57-.25,2.28-.45,1.52-.3,2.55-1.21,3.11-2.73.55-1.52.98-3.39,1.29-5.61.4-3.23.63-7.71.68-13.42.05-5.71.08-12.21.08-19.49v-50.13c0-2.28-.03-4.1-.08-5.46-.05-1.37-.13-2.66-.23-3.87-.3-4.95-2.02-7.79-5.16-8.49-.81-.2-1.67-.35-2.58-.46-.91-.1-1.62-.15-2.12-.15-.81,0-1.21-.3-1.21-.91,0-.81.81-1.21,2.43-1.21,1.21,0,2.68.03,4.4.08,1.72.05,3.34.1,4.85.15,1.52.05,2.85.1,4.02.15,1.16.05,1.85.08,2.05.08s.88-.02,2.05-.08c1.16-.05,2.5-.1,4.02-.15,1.52-.05,3.08-.1,4.7-.15,1.62-.05,2.98-.08,4.09-.08,1.62,0,2.43.41,2.43,1.21,0,.61-.41.91-1.21.91-.51,0-1.04.03-1.59.08-.56.05-1.29.18-2.2.38-2.02.41-3.41,1.29-4.17,2.66s-1.24,3.36-1.44,5.99c-.1,1.21-.18,2.5-.23,3.87-.05,1.36-.08,3.18-.08,5.46v23.44Z"/>
    <path class="cls-1" d="M306.61,148.16v-50.13c0-2.28-.03-4.1-.08-5.46-.05-1.37-.13-2.66-.23-3.87-.21-2.63-.71-4.6-1.52-5.92-.81-1.31-2.48-2.22-5.01-2.73-.61-.2-1.44-.33-2.5-.38-1.06-.05-1.95-.08-2.66-.08-.81,0-1.21-.3-1.21-.91,0-.81.81-1.21,2.43-1.21,1.72,0,3.54.03,5.46.08,1.92.05,3.72.1,5.38.15,1.67.05,3.08.1,4.25.15,1.16.05,1.85.08,2.05.08,1.82,0,4.15-.08,6.98-.23,2.83-.15,6.02-.23,9.56-.23,6.17,0,11.22.83,15.17,2.5,3.95,1.67,7.06,3.69,9.33,6.07,2.28,2.38,3.81,4.85,4.63,7.43.81,2.58,1.21,4.83,1.21,6.75,0,3.14-.4,5.97-1.21,8.49-.81,2.53-1.9,4.88-3.26,7.05-1.36,2.18-2.88,4.22-4.55,6.14-1.67,1.92-3.41,3.79-5.23,5.61,2.83.91,5.79,2.25,8.87,4.02,3.08,1.77,5.92,4,8.5,6.68,2.58,2.68,4.7,5.79,6.37,9.33,1.67,3.54,2.5,7.54,2.5,11.98,0,4.05-.81,8.04-2.43,11.99-1.62,3.94-4.02,7.48-7.21,10.62-3.19,3.14-7.21,5.67-12.06,7.59-4.85,1.92-10.52,2.88-16.99,2.88-.81,0-2.28-.05-4.4-.15-2.12-.1-4.3-.2-6.52-.3-2.23-.2-4.25-.33-6.07-.38-1.82-.05-2.88-.08-3.19-.08h-1.97c-1.11,0-2.48.05-4.09.15-1.52,0-3.09.05-4.7.15-1.62.1-2.98.15-4.1.15-1.62,0-2.43-.4-2.43-1.21,0-.61.4-.91,1.21-.91.71,0,1.46-.05,2.28-.15.81-.1,1.57-.25,2.28-.45,1.52-.3,2.55-1.21,3.11-2.73.55-1.52.98-3.39,1.29-5.61.4-3.23.63-7.71.68-13.42.05-5.71.08-12.21.08-19.49ZM318.75,84.15v40.65c0,.81.35,1.36,1.06,1.67.51.1,1.47.23,2.88.38,1.42.15,3.54.23,6.37.23,2.12,0,3.89-.02,5.31-.08,1.42-.05,2.6-.23,3.56-.53.96-.3,1.82-.71,2.58-1.21.76-.5,1.54-1.21,2.35-2.12,1.62-1.82,2.93-4.04,3.94-6.68,1.01-2.63,1.52-5.51,1.52-8.65s-.38-6.27-1.14-9.4c-.76-3.13-1.95-5.94-3.57-8.42-1.62-2.48-3.72-4.48-6.3-5.99-2.58-1.52-5.74-2.28-9.48-2.28-.81,0-1.92.05-3.34.15-1.42.1-2.73.3-3.94.61-1.21.3-1.82.86-1.82,1.67ZM318.75,132.23v28.52c0,3.24.02,6.04.08,8.42.05,2.38.08,3.87.08,4.47.1,1.82.2,3.36.3,4.63.1,1.27.33,2.33.68,3.19.35.86.83,1.59,1.44,2.2s1.52,1.21,2.73,1.82c1.01.51,2.15.91,3.41,1.21,1.26.3,2.53.53,3.79.68,1.26.15,2.43.25,3.49.3,1.06.05,1.95.08,2.66.08,2.02,0,4.27-.33,6.75-.99,2.48-.66,4.8-1.79,6.98-3.41,2.17-1.62,3.99-3.81,5.46-6.6,1.47-2.78,2.2-6.3,2.2-10.54,0-2.22-.23-4.7-.68-7.43-.46-2.73-1.24-5.46-2.35-8.19-1.11-2.73-2.6-5.36-4.48-7.89-1.87-2.53-4.27-4.8-7.2-6.83-2.63-1.72-4.93-2.83-6.9-3.34-1.97-.5-3.87-.86-5.69-1.06-.51-.1-1.29-.18-2.35-.23-1.06-.05-2.2-.07-3.41-.07h-6.07c-.61,0-.91.36-.91,1.06Z"/>
    <path class="cls-1" d="M395.8,148.16v-50.13c0-2.28-.03-4.1-.08-5.46-.05-1.37-.13-2.66-.23-3.87-.21-2.63-.71-4.6-1.52-5.92-.81-1.31-2.48-2.22-5.01-2.73-.61-.2-1.44-.33-2.5-.38-1.06-.05-1.95-.08-2.66-.08-.81,0-1.21-.3-1.21-.91,0-.81.81-1.21,2.43-1.21h5.46c1.92,0,3.74.05,5.46.15l6.22.3h16.46c4.09,0,7.94-.02,11.53-.08,3.59-.05,5.84-.08,6.75-.08,2.93-.2,5.11-.45,6.52-.76.4-.1.76-.25,1.06-.45s.66-.3,1.06-.3.61.45.61,1.36c0,.51-.15,1.29-.46,2.35-.3,1.06-.56,2.65-.76,4.78,0,.41-.03,1.06-.08,1.97-.05.91-.13,1.9-.23,2.96-.1,1.06-.18,2.07-.23,3.03-.05.96-.13,1.64-.23,2.05-.1.41-.23.78-.38,1.14-.15.36-.38.53-.68.53-.81,0-1.21-.66-1.21-1.97,0-.5-.05-1.31-.15-2.43-.1-1.11-.36-2.12-.76-3.03-.51-1.21-1.42-2.25-2.73-3.11-1.31-.86-4-1.54-8.04-2.05-.61-.1-1.97-.17-4.09-.23-2.12-.05-4.35-.1-6.68-.15-2.33-.05-4.48-.07-6.45-.07h-3.56c-.61,0-.91.51-.91,1.52v41.87c0,1.01.3,1.52.91,1.52h11.45c2.68,0,5.23-.02,7.66-.08,2.43-.05,4.1-.13,5.01-.23,1.82-.2,3.28-.4,4.4-.61,1.11-.2,2.02-.71,2.73-1.52,1.11-1.31,1.87-1.97,2.28-1.97.5,0,.76.41.76,1.21,0,.51-.15,1.42-.45,2.73-.3,1.32-.56,3.24-.76,5.76-.1.81-.18,1.69-.23,2.66-.05.96-.1,1.92-.15,2.88-.05.96-.1,1.82-.15,2.58-.05.76-.08,1.29-.08,1.59,0,.61-.05,1.24-.15,1.9-.1.66-.41.98-.91.98-.71,0-1.06-.45-1.06-1.36,0-.81-.03-1.59-.08-2.35-.05-.76-.23-1.64-.53-2.66-.3-1.11-.96-2.2-1.97-3.26-1.01-1.06-2.98-1.74-5.92-2.05-1.01-.1-2.6-.2-4.78-.3-2.17-.1-4.4-.17-6.67-.23-2.28-.05-4.4-.1-6.37-.15-1.97-.05-3.26-.07-3.87-.07-.71,0-1.06.35-1.06,1.06v39.17c.1,2.62.38,4.74.83,6.35.46,1.61,1.31,2.87,2.58,3.78,1.26.91,3.01,1.51,5.23,1.82,2.22.3,5.21.45,8.95.45,2.02,0,4.45-.08,7.28-.23,2.83-.15,5.26-.63,7.28-1.44,2.02-.81,3.54-2.05,4.55-3.72,1.01-1.67,1.77-4.07,2.28-7.2.3-1.52.76-2.28,1.36-2.28.5,0,.78.25.83.76.05.51.08,1.01.08,1.52,0,.3-.08,1.09-.23,2.35-.15,1.27-.33,2.68-.53,4.25-.2,1.57-.4,3.11-.61,4.64-.21,1.53-.41,2.7-.61,3.53-.3,1.04-.61,1.82-.91,2.33-.3.52-.76.91-1.36,1.17-.61.26-1.37.41-2.28.47-.91.05-2.12.08-3.64.08-5.76,0-10.75-.05-14.94-.15-4.2-.1-7.76-.2-10.7-.3-2.93-.2-5.36-.33-7.28-.38-1.92-.05-3.44-.08-4.55-.08h-1.97c-1.11,0-2.48.05-4.09.15-1.52,0-3.09.05-4.7.15-1.62.1-2.98.15-4.1.15-1.62,0-2.43-.4-2.43-1.21,0-.61.4-.91,1.21-.91.71,0,1.46-.05,2.28-.15.81-.1,1.57-.25,2.28-.45,1.52-.3,2.55-1.21,3.11-2.73.55-1.52.98-3.39,1.29-5.61.4-3.23.63-7.71.68-13.42.05-5.71.08-12.21.08-19.49Z"/>
    <path class="cls-1" d="M513.41,148.16v-50.13c0-2.28-.03-4.1-.08-5.46-.05-1.37-.13-2.66-.23-3.87-.21-2.63-.71-4.6-1.52-5.92-.81-1.31-2.48-2.22-5.01-2.73-.61-.2-1.44-.33-2.5-.38-1.06-.05-1.95-.08-2.66-.08-.81,0-1.21-.3-1.21-.91,0-.81.81-1.21,2.43-1.21,1.72,0,3.51.03,5.38.08,1.87.05,3.64.1,5.31.15,1.67.05,3.08.1,4.25.15,1.16.05,1.9.08,2.2.08,1.72,0,4.45-.08,8.19-.23,3.74-.15,7.38-.23,10.92-.23,4.75,0,8.77.36,12.06,1.06,3.29.71,6.04,1.52,8.27,2.43,2.23.91,3.95,1.85,5.16,2.81,1.21.96,2.12,1.74,2.73,2.35,1.72,1.62,3.41,4.02,5.08,7.21,1.67,3.19,2.5,6.8,2.5,10.85,0,5.36-.93,10.26-2.81,14.72-1.87,4.45-4.47,8.27-7.81,11.45-3.34,3.18-7.28,5.64-11.83,7.36-4.55,1.72-9.51,2.58-14.87,2.58h-1.59c-.66,0-1.19-.05-1.59-.15-.41,0-.78-.07-1.14-.23-.36-.15-.53-.43-.53-.83,0-.61.28-.99.83-1.14.55-.15,1.64-.23,3.26-.23,3.64,0,7.08-.63,10.32-1.9,3.24-1.26,6.02-3.01,8.34-5.23,2.33-2.22,4.17-4.83,5.54-7.81,1.36-2.98,2.05-6.24,2.05-9.78,0-1.21-.08-2.73-.23-4.55-.15-1.82-.51-3.79-1.06-5.92-.56-2.12-1.39-4.3-2.5-6.52-1.11-2.22-2.68-4.35-4.7-6.37-2.02-2.02-4.07-3.57-6.14-4.63-2.07-1.06-4.05-1.82-5.92-2.28-1.87-.45-3.57-.68-5.08-.68h-3.64c-1.31,0-2.55.08-3.72.23-1.16.15-2.1.38-2.81.68-.81.3-1.21,1.27-1.21,2.88v62.35c0,7.28.02,13.78.08,19.49.05,5.71.28,10.19.68,13.42.2,2.23.66,4.1,1.37,5.61.71,1.52,2.22,2.43,4.55,2.73,1.11.2,2.35.36,3.72.45,1.36.1,2.4.15,3.11.15.81,0,1.21.3,1.21.91,0,.81-.81,1.21-2.43,1.21-2.12,0-4.25-.03-6.37-.07-2.12-.05-4.07-.1-5.84-.15-1.77-.05-3.24-.1-4.4-.15-1.16-.05-1.85-.08-2.05-.08-.1,0-.71.02-1.82.08-1.11.05-2.43.1-3.94.15-1.52.05-3.09.1-4.7.15-1.62.05-2.98.07-4.1.07-1.62,0-2.43-.4-2.43-1.21,0-.61.4-.91,1.21-.91.71,0,1.46-.05,2.28-.15.81-.1,1.57-.25,2.28-.45,1.52-.3,2.55-1.21,3.11-2.73.55-1.52.98-3.39,1.29-5.61.4-3.23.63-7.71.68-13.42.05-5.71.08-12.21.08-19.49Z"/>
    <path class="cls-1" d="M609.79,121.46v26.7c0,7.28.02,13.78.08,19.49.05,5.71.28,10.19.68,13.42.2,2.23.66,4.1,1.37,5.61.71,1.52,2.22,2.43,4.55,2.73,1.11.2,2.35.36,3.72.45,1.36.1,2.4.15,3.11.15.81,0,1.21.3,1.21.91,0,.81-.81,1.21-2.43,1.21-2.12,0-4.25-.03-6.37-.07-2.12-.05-4.07-.1-5.84-.15-1.77-.05-3.24-.1-4.4-.15-1.16-.05-1.85-.08-2.05-.08s-.89.02-2.05.08c-1.16.05-2.5.1-4.02.15-1.52.05-3.09.1-4.7.15-1.62.05-2.98.07-4.1.07-1.62,0-2.43-.4-2.43-1.21,0-.61.4-.91,1.21-.91.71,0,1.46-.05,2.28-.15.81-.1,1.57-.25,2.28-.45,1.52-.3,2.55-1.21,3.11-2.73.55-1.52.98-3.39,1.29-5.61.4-3.23.63-7.71.68-13.42.05-5.71.08-12.21.08-19.49v-50.13c0-2.28-.03-4.1-.08-5.46-.05-1.37-.13-2.66-.23-3.87-.3-4.95-2.02-7.79-5.16-8.49-.81-.2-1.67-.35-2.58-.46-.91-.1-1.62-.15-2.12-.15-.81,0-1.21-.3-1.21-.91,0-.81.81-1.21,2.43-1.21,1.21,0,2.68.03,4.4.08,1.72.05,3.34.1,4.85.15,1.52.05,2.85.1,4.02.15,1.16.05,1.85.08,2.05.08s.88-.02,2.05-.08c1.16-.05,2.5-.1,4.02-.15,1.52-.05,3.08-.1,4.7-.15,1.62-.05,2.98-.08,4.09-.08,1.62,0,2.43.41,2.43,1.21,0,.61-.41.91-1.21.91-.51,0-1.04.03-1.59.08-.56.05-1.29.18-2.2.38-2.02.41-3.41,1.29-4.17,2.66-.76,1.36-1.24,3.36-1.44,5.99-.1,1.21-.18,2.5-.23,3.87-.05,1.36-.08,3.18-.08,5.46v23.44Z"/>
    <path class="cls-1" d="M651.04,148.16v-50.13c0-2.28-.03-4.1-.08-5.46-.05-1.37-.13-2.66-.23-3.87-.21-2.63-.71-4.6-1.52-5.92-.81-1.31-2.48-2.22-5.01-2.73-.61-.2-1.44-.33-2.5-.38-1.06-.05-1.95-.08-2.66-.08-.81,0-1.21-.3-1.21-.91,0-.81.81-1.21,2.43-1.21,1.72,0,3.54.03,5.46.08,1.92.05,3.72.1,5.38.15,1.67.05,3.08.1,4.25.15,1.16.05,1.85.08,2.05.08,1.82,0,4.15-.08,6.98-.23,2.83-.15,6.02-.23,9.56-.23,6.17,0,11.22.83,15.17,2.5,3.95,1.67,7.06,3.69,9.33,6.07,2.28,2.38,3.81,4.85,4.63,7.43.81,2.58,1.21,4.83,1.21,6.75,0,3.14-.4,5.97-1.21,8.49-.81,2.53-1.9,4.88-3.26,7.05-1.36,2.18-2.88,4.22-4.55,6.14-1.67,1.92-3.41,3.79-5.23,5.61,2.83.91,5.79,2.25,8.87,4.02,3.08,1.77,5.92,4,8.5,6.68,2.58,2.68,4.7,5.79,6.37,9.33,1.67,3.54,2.5,7.54,2.5,11.98,0,4.05-.81,8.04-2.43,11.99-1.62,3.94-4.02,7.48-7.21,10.62-3.19,3.14-7.21,5.67-12.06,7.59-4.85,1.92-10.52,2.88-16.99,2.88-.81,0-2.28-.05-4.4-.15-2.12-.1-4.3-.2-6.52-.3-2.23-.2-4.25-.33-6.07-.38-1.82-.05-2.88-.08-3.19-.08h-1.97c-1.11,0-2.48.05-4.09.15-1.52,0-3.09.05-4.7.15-1.62.1-2.98.15-4.1.15-1.62,0-2.43-.4-2.43-1.21,0-.61.4-.91,1.21-.91.71,0,1.46-.05,2.28-.15.81-.1,1.57-.25,2.28-.45,1.52-.3,2.55-1.21,3.11-2.73.55-1.52.98-3.39,1.29-5.61.4-3.23.63-7.71.68-13.42.05-5.71.08-12.21.08-19.49ZM663.18,84.15v40.65c0,.81.35,1.36,1.06,1.67.51.1,1.47.23,2.88.38,1.42.15,3.54.23,6.37.23,2.12,0,3.89-.02,5.31-.08,1.42-.05,2.6-.23,3.56-.53.96-.3,1.82-.71,2.58-1.21.76-.5,1.54-1.21,2.35-2.12,1.62-1.82,2.93-4.04,3.94-6.68,1.01-2.63,1.52-5.51,1.52-8.65s-.38-6.27-1.14-9.4c-.76-3.13-1.95-5.94-3.57-8.42-1.62-2.48-3.72-4.48-6.3-5.99-2.58-1.52-5.74-2.28-9.48-2.28-.81,0-1.92.05-3.34.15-1.42.1-2.73.3-3.94.61-1.21.3-1.82.86-1.82,1.67ZM663.18,132.23v28.52c0,3.24.02,6.04.08,8.42.05,2.38.08,3.87.08,4.47.1,1.82.2,3.36.3,4.63.1,1.27.33,2.33.68,3.19.35.86.83,1.59,1.44,2.2s1.52,1.21,2.73,1.82c1.01.51,2.15.91,3.41,1.21,1.26.3,2.53.53,3.79.68,1.26.15,2.43.25,3.49.3,1.06.05,1.95.08,2.66.08,2.02,0,4.27-.33,6.75-.99,2.48-.66,4.8-1.79,6.98-3.41,2.17-1.62,3.99-3.81,5.46-6.6,1.47-2.78,2.2-6.3,2.2-10.54,0-2.22-.23-4.7-.68-7.43-.46-2.73-1.24-5.46-2.35-8.19-1.11-2.73-2.6-5.36-4.48-7.89-1.87-2.53-4.27-4.8-7.2-6.83-2.63-1.72-4.93-2.83-6.9-3.34-1.97-.5-3.87-.86-5.69-1.06-.51-.1-1.29-.18-2.35-.23-1.06-.05-2.2-.07-3.41-.07h-6.07c-.61,0-.91.36-.91,1.06Z"/>
  </g>
  <g>
    <path class="cls-1" d="M73.57,66.7v132.65h92.56c-13.53-5.08-30.04-21.14-31.86-48.28-17.27,5.66-35.81,6.69-52.04,6.69-1.17,0-1.52-1.95.59-1.95,8.79,0,34.05-5.61,51.36-12.51,1.16-21.46,15.57-42.35,30.28-42.35s12.89,30.74-19.42,46.01c0,36.7,24.88,51.99,29.67,52.4h31.51V66.7H73.57ZM171.94,95.31c-3.53,0-6.58-3.46-6.58-8.11,0-4.26,2.73-9.06,7.76-9.06,4.35,0,6.65,4.23,6.65,8.38s-2.85,8.8-7.83,8.8Z"/>
    <path class="cls-1" d="M163.26,106.37c-4.71,0-14.79,9.59-17.54,31.3,18.58-11.56,23.25-31.3,17.54-31.3Z"/>
  </g>
</svg>